<svg aria-hidden="true" style="position: absolute; width: 0; height: 0; overflow: hidden;" version="1.1" xmlns="http://www.w3.org/2000/svg" xmlns:xlink="http://www.w3.org/1999/xlink">
<defs>
<symbol id="icon-person" viewBox="0 0 32 32">
<path d="M16.008 16.008c2.947 0 5.336-2.389 5.336-5.336s-2.389-5.336-5.336-5.336v0c-2.947 0-5.336 2.389-5.336 5.336s2.389 5.336 5.336 5.336v0zM16.008 18.676c-3.563 0-10.672 1.788-10.672 5.336v1.334c0 0.733 0.599 1.334 1.334 1.334h18.676c0.733 0 1.334-0.601 1.334-1.334v-1.334c0-3.548-7.111-5.336-10.672-5.336z"></path>
</symbol>
<symbol id="icon-phone" viewBox="0 0 32 32">
<path stroke-linejoin="round" stroke-linecap="round" stroke-miterlimit="4" stroke-width="2.6667" d="M29.339 22.564v4.001c0 0.003 0 0.006 0 0.009 0 1.474-1.195 2.669-2.668 2.669-0.084 0-0.167-0.004-0.249-0.012l0.011 0.001c-4.328-0.482-8.237-1.943-11.609-4.156l0.1 0.062c-3.243-2.082-5.92-4.759-7.939-7.898l-0.062-0.103c-2.158-3.287-3.621-7.215-4.084-11.444l-0.010-0.118c-0.007-0.072-0.011-0.156-0.011-0.24 0-1.472 1.193-2.666 2.665-2.667h4.001c0.008-0 0.017-0 0.026-0 1.341 0 2.451 0.99 2.639 2.279l0.002 0.014c0.169 1.28 0.483 2.538 0.934 3.747 0.108 0.279 0.171 0.601 0.171 0.938 0 0.731-0.294 1.394-0.771 1.876l-1.693 1.693c1.933 3.357 4.645 6.069 7.898 7.947l0.103 0.055 1.694-1.694c0.481-0.477 1.144-0.771 1.875-0.771 0.337 0 0.66 0.063 0.957 0.177l-0.018-0.006c1.21 0.452 2.467 0.765 3.747 0.933 1.304 0.189 2.295 1.299 2.295 2.641 0 0.023-0 0.046-0.001 0.070l0-0.003z"></path>
</symbol>
</defs>
</svg>
